<?xml version="1.0" encoding="UTF-8"?>
<svg id="Layer_1" data-name="Layer 1" xmlns="http://www.w3.org/2000/svg" viewBox="0 0 1960 560">
  <defs>
    <style>
      .cls-1 {
        fill: #84bc4e;
      }
    </style>
  </defs>
  <g id="Logo">
    <g>
      <g>
        <path class="cls-1" d="m271.77,334.68c-19.88-19.88-30.02-44.06-30.02-72.91s10.14-53.02,30.02-72.91c19.88-19.88,44.45-29.63,72.91-29.63s53.02,9.75,72.91,29.63c19.88,19.88,30.02,44.06,30.02,72.91s-10.14,53.02-30.02,72.91c-19.88,19.88-44.06,29.63-72.91,29.63s-53.02-9.75-72.91-29.63Zm72.91-11.31c17.16,0,31.58-5.85,43.28-17.54,11.7-11.7,17.54-26.51,17.54-44.06s-5.85-32.36-17.54-44.06c-11.7-11.7-26.12-17.55-43.28-17.55s-31.58,5.85-43.28,17.55c-11.7,11.7-17.55,26.51-17.55,44.06s5.85,32.36,17.55,44.06c11.7,11.7,26.12,17.54,43.28,17.54Z"/>
        <path class="cls-1" d="m518.18,197.05c10.53-24.17,30.8-36.26,60.04-36.26v45.62c-15.99-1.17-30.02,2.73-42.11,11.7-12.09,8.58-17.93,23-17.93,42.89v98.25h-42.11v-194.94h42.11v32.75Z"/>
        <path class="cls-1" d="m599.66,359.25v-194.94h42.11v194.94h-42.11Z"/>
        <path class="cls-1" d="m812.15,164.3h44.84l-74.86,201.18c-18.71,50.29-50.3,74.47-95.13,71.74v-39.38c26.51,1.56,41.33-11.31,51.85-38.21l1.95-3.9-82.65-191.43h46.01l58.09,141.53,49.91-141.53Z"/>
        <path class="cls-1" d="m880.77,333.12c-16.76-21.05-22.61-46.4-16.76-76.42,5.46-28.85,19.49-52.24,41.72-70.18,22.22-18.33,47.96-27.29,77.2-27.29s51.46,10.53,68.23,31.19c16.76,20.66,22.22,46.01,17.15,75.25-5.07,29.24-19.1,53.02-41.33,71.35-22.22,18.33-47.18,27.29-74.86,27.29-30.8,0-54.58-10.53-71.35-31.19Zm120.08-26.51c13.65-11.31,22.22-26.51,25.73-45.62,3.51-18.32,0-33.14-9.75-44.06-9.75-11.31-23-16.77-39.77-16.77s-31.97,5.46-45.62,16.77c-13.65,10.92-21.83,25.73-25.34,44.84-6.24,37.82,15.99,61.6,49.13,61.6,16.76,0,31.97-5.46,45.62-16.76Z"/>
        <path class="cls-1" d="m1228.94,164.3h42.11v194.94h-42.11v-24.95c-12.87,19.88-32.75,30.02-60.43,30.02-44.84,0-74.86-30.41-74.86-80.32v-119.69h42.11v115.41c0,29.24,16.76,45.23,43.67,45.23,29.63,0,49.52-18.32,49.52-56.14v-104.49Z"/>
        <path class="cls-1" d="m1487.83,239.55v119.69h-42.11v-115.4c0-29.24-16.76-45.23-43.67-45.23-29.63,0-49.52,18.33-49.52,56.14v104.49h-42.11v-194.94h42.11v24.95c12.87-19.88,32.75-30.02,60.43-30.02,44.84,0,74.86,30.41,74.86,80.32Z"/>
        <path class="cls-1" d="m1542.41,334.68c-19.88-19.88-30.02-44.06-30.02-72.91s10.14-53.02,30.02-72.91c19.88-19.88,44.45-29.63,72.91-29.63s53.02,9.75,72.91,29.63c19.88,19.88,30.02,44.06,30.02,72.91s-10.14,53.02-30.02,72.91c-19.88,19.88-44.06,29.63-72.91,29.63s-53.02-9.75-72.91-29.63Zm72.91-11.31c17.16,0,31.58-5.85,43.28-17.54,11.7-11.7,17.54-26.51,17.54-44.06s-5.85-32.36-17.54-44.06c-11.7-11.7-26.12-17.55-43.28-17.55s-31.58,5.85-43.28,17.55c-11.7,11.7-17.55,26.51-17.55,44.06s5.85,32.36,17.55,44.06c11.7,11.7,26.12,17.54,43.28,17.54Z"/>
        <path class="cls-1" d="m1718.25,206.41h-73.69v-42.11h73.69v42.11Z"/>
      </g>
      <path class="cls-1" d="m1675.83,368.91c-.31,16.91-6.16,31.25-17.53,42.62-11.7,11.7-26.11,17.55-43.28,17.55s-31.57-5.85-43.27-17.55c-11.37-11.37-17.22-25.71-17.53-42.62h-42.12c.32,28.22,10.46,51.92,30.01,71.47,19.89,19.89,44.44,29.63,72.9,29.63s53.03-9.75,72.92-29.63c19.55-19.55,29.69-43.25,30.01-71.47h-42.12Z"/>
    </g>
    <g>
      <path class="cls-1" d="m629.19,137.37c-3.58,3.1-7.56,5.27-11.7,6.53-4.17,1.27-8.49,1.63-12.71,1.09,2.39-7.74,6.27-17.73,12.62-28.34,6.85-11.46,14.3-19.78,20.18-25.43,2.14,4.19,3.45,8.7,3.95,13.28,1.34,12.14-2.94,24.72-12.34,32.87Z"/>
      <path class="cls-1" d="m635.67,90.22c-5.88,5.65-13.33,13.97-20.18,25.43-6.35,10.61-10.23,20.6-12.62,28.34-.53-1.04-1.02-2.11-1.46-3.23-1.3-3.28-2.12-6.66-2.49-10.04-1.75-15.58,5.95-31.19,19.78-37.74,1.41-.66,2.82-1.21,4.26-1.65,4.23-1.3,8.55-1.64,12.72-1.11Z"/>
    </g>
  </g>
</svg>